# xmcd
#
# Track frame offsets:
#	225
#	26914
#	45840
#	76188
#	101545
#	121478
#	144648
#	161099
#	183139
#	215670
#	227678
#	239550
#
# Disc length: 3500 seconds
#
# Revision: 0
# Processed by: cddbd v1.5.2PL0 Copyright (c) Steve Scherf et al.
# Submitted via: dBpowerAMP V4.0
#
DISCID=9e0da90c
DTITLE=STING - FIELDS OF GOLD
DYEAR=1900
DGENRE=General New Age
TTITLE0=Autumn
TTITLE1=Song For Kao
TTITLE2=Rainforest Dance
TTITLE3=Sacred Rocks
TTITLE4=The Mists Of Poe
TTITLE5=And The Earth Spins
TTITLE6=Before Night Falls (Part Two)
TTITLE7=Summers End
TTITLE8=Flight Of The Giant Eagle
TTITLE9=Friends
TTITLE10=Morning Echoes
TTITLE11=Something In Tears
EXTD=
EXTT0=
EXTT1=
EXTT2=
EXTT3=
EXTT4=
EXTT5=
EXTT6=
EXTT7=
EXTT8=
EXTT9=
EXTT10=
EXTT11=
PLAYORDER=
